<?xml version="1.0" encoding="UTF-8" standalone="no"?>
<svg
   xmlns:dc="http://purl.org/dc/elements/1.1/"
   xmlns:cc="http://creativecommons.org/ns#"
   xmlns:rdf="http://www.w3.org/1999/02/22-rdf-syntax-ns#"
   xmlns:svg="http://www.w3.org/2000/svg"
   xmlns="http://www.w3.org/2000/svg"
   width="30.914675mm"
   height="30.064476mm"
   viewBox="0 0 30.914675 30.064476"
   version="1.1"
   id="svg4895">
  <defs
     id="defs4889" />
  <metadata
     id="metadata4892">
    <rdf:RDF>
      <cc:Work
         rdf:about="">
        <dc:format>image/svg+xml</dc:format>
        <dc:type
           rdf:resource="http://purl.org/dc/dcmitype/StillImage" />
        <dc:title></dc:title>
      </cc:Work>
    </rdf:RDF>
  </metadata>
  <g
     style="fill:none;fill-opacity:1;stroke:#000000;stroke-opacity:1"
     id="g8625"
     transform="matrix(0.11296143,0.80682029,-0.80682029,0.11296143,20.272614,-122.83299)">
    <path
       id="path8478-8-7"
       d="m 156.85938,11.636719 c -3.32221,-2e-6 -6.03711,2.716858 -6.03711,6.039062 0,3.322205 2.7149,6.039064 6.03711,6.039063 0.20813,0 0.38502,-0.09834 0.58789,-0.119141 l 2.35546,10.003906 c -2.05043,0.967785 -3.5,3.023687 -3.5,5.431641 0,3.3222 2.71491,6.039057 6.03711,6.039062 3.32221,2e-6 6.03907,-2.716857 6.03907,-6.039062 0,-3.322205 -2.71686,-6.039064 -6.03907,-6.039062 -0.15429,0 -0.28407,0.07638 -0.43554,0.08789 l -2.36914,-10.064453 c 1.51634,-0.767643 2.60184,-2.142169 3.05273,-3.8125 l 10.83984,1.482422 c -0.0203,0.200373 -0.11718,0.374569 -0.11718,0.580078 0,3.322205 2.71685,6.039064 6.03906,6.039063 3.3222,1e-6 6.03906,-2.716858 6.03906,-6.039063 0,-3.322205 -2.71686,-6.037111 -6.03906,-6.037109 -2.34388,-1e-6 -4.33243,1.388546 -5.33203,3.351562 l -11.24805,-1.535156 c -0.33189,-3.013876 -2.81137,-5.408205 -5.91015,-5.408203 z m 0,2.166015 c 2.15215,-10e-7 3.87499,1.720896 3.875,3.873047 0,2.152152 -1.72285,3.873048 -3.875,3.873047 -2.15216,1e-6 -3.87305,-1.720895 -3.87305,-3.873047 0,-2.152151 1.72089,-3.873048 3.87305,-3.873047 z m 22.49023,3.589844 c 2.15215,-1e-6 3.87305,1.720895 3.87305,3.873047 0,2.152152 -1.7209,3.875001 -3.87305,3.875 -2.15215,1e-6 -3.87305,-1.722848 -3.87305,-3.875 0,-2.152152 1.7209,-3.873048 3.87305,-3.873047 z m -17.00977,17.765625 c 2.15216,-10e-7 3.875,1.720895 3.875,3.873047 0,2.152152 -1.72284,3.873048 -3.875,3.873047 -2.15214,-4e-6 -3.87304,-1.720899 -3.87304,-3.873047 0,-2.152148 1.7209,-3.873043 3.87304,-3.873047 z"
       style="color:#000000;font-style:normal;font-variant:normal;font-weight:normal;font-stretch:normal;font-size:medium;line-height:normal;font-family:sans-serif;font-variant-ligatures:normal;font-variant-position:normal;font-variant-caps:normal;font-variant-numeric:normal;font-variant-alternates:normal;font-feature-settings:normal;text-indent:0;text-align:start;text-decoration:none;text-decoration-line:none;text-decoration-style:solid;text-decoration-color:#000000;letter-spacing:normal;word-spacing:normal;text-transform:none;writing-mode:lr-tb;direction:ltr;text-orientation:mixed;dominant-baseline:auto;baseline-shift:baseline;text-anchor:start;white-space:normal;shape-padding:0;clip-rule:nonzero;display:inline;overflow:visible;visibility:visible;opacity:1;isolation:auto;mix-blend-mode:normal;color-interpolation:sRGB;color-interpolation-filters:linearRGB;solid-color:#000000;solid-opacity:1;vector-effect:none;fill:#000000;fill-opacity:1;fill-rule:nonzero;stroke:none;stroke-width:2.16499996;stroke-linecap:butt;stroke-linejoin:miter;stroke-miterlimit:4;stroke-dasharray:none;stroke-dashoffset:0;stroke-opacity:1;color-rendering:auto;image-rendering:auto;shape-rendering:auto;text-rendering:auto;enable-background:accumulate" />
  </g>
</svg>
