<?xml version="1.0" encoding="UTF-8" standalone="no"?>
<svg
   xmlns:dc="http://purl.org/dc/elements/1.1/"
   xmlns:cc="http://creativecommons.org/ns#"
   xmlns:rdf="http://www.w3.org/1999/02/22-rdf-syntax-ns#"
   xmlns:svg="http://www.w3.org/2000/svg"
   xmlns="http://www.w3.org/2000/svg"
   xmlns:sodipodi="http://sodipodi.sourceforge.net/DTD/sodipodi-0.dtd"
   xmlns:inkscape="http://www.inkscape.org/namespaces/inkscape"
   id="svg4895"
   version="1.1"
   viewBox="0 0 34.395832 31.512964"
   height="31.512964mm"
   width="34.395832mm"
   sodipodi:docname="soundLogo.svg"
   inkscape:version="0.92.1 r15371">
  <sodipodi:namedview
     pagecolor="#ffffff"
     bordercolor="#666666"
     borderopacity="1"
     objecttolerance="10"
     gridtolerance="10"
     guidetolerance="10"
     inkscape:pageopacity="0"
     inkscape:pageshadow="2"
     inkscape:window-width="1920"
     inkscape:window-height="1051"
     id="namedview16"
     showgrid="false"
     inkscape:zoom="5.0938426"
     inkscape:cx="102.35495"
     inkscape:cy="62.002432"
     inkscape:window-x="-9"
     inkscape:window-y="-9"
     inkscape:window-maximized="1"
     inkscape:current-layer="svg4895" />
  <defs
     id="defs4889" />
  <metadata
     id="metadata4892">
    <rdf:RDF>
      <cc:Work
         rdf:about="">
        <dc:format>image/svg+xml</dc:format>
        <dc:type
           rdf:resource="http://purl.org/dc/dcmitype/StillImage" />
        <dc:title />
      </cc:Work>
    </rdf:RDF>
  </metadata>
  <g
     transform="translate(-57.583685,-72.125016)"
     id="layer1">
    <path
       style="color:#000000;font-style:normal;font-variant:normal;font-weight:normal;font-stretch:normal;font-size:medium;line-height:normal;font-family:sans-serif;font-variant-ligatures:normal;font-variant-position:normal;font-variant-caps:normal;font-variant-numeric:normal;font-variant-alternates:normal;font-feature-settings:normal;text-indent:0;text-align:start;text-decoration:none;text-decoration-line:none;text-decoration-style:solid;text-decoration-color:#000000;letter-spacing:normal;word-spacing:normal;text-transform:none;writing-mode:lr-tb;direction:ltr;text-orientation:mixed;dominant-baseline:auto;baseline-shift:baseline;text-anchor:start;white-space:normal;shape-padding:0;clip-rule:nonzero;display:inline;overflow:visible;visibility:visible;opacity:1;isolation:auto;mix-blend-mode:normal;color-interpolation:sRGB;color-interpolation-filters:linearRGB;solid-color:#000000;solid-opacity:1;vector-effect:none;fill:#212121;fill-opacity:1;fill-rule:nonzero;stroke:none;stroke-width:1.66542375;stroke-linecap:butt;stroke-linejoin:miter;stroke-miterlimit:4;stroke-dasharray:none;stroke-dashoffset:0;stroke-opacity:1;color-rendering:auto;image-rendering:auto;shape-rendering:auto;text-rendering:auto;enable-background:accumulate"
       d="m 66.570312,72.173828 c -0.456775,0.158406 -0.576417,0.437396 -0.691406,0.660156 -0.114988,0.222761 -0.195818,0.458555 -0.27539,0.732422 -0.31829,1.095469 -0.57165,2.820614 -0.824219,4.859375 -0.505138,4.077523 -0.963997,9.33508 -1.414063,12.007813 -0.128766,0.764684 -0.204615,0.854303 -0.318359,1.207031 -0.10522,-0.225662 -0.180519,-0.335438 -0.292969,-0.609375 -0.257591,-0.627516 -0.527071,-1.328366 -0.832031,-1.935547 -0.610019,-1.21456 -1.34407,-1.949242 -2.144531,-2.314453 -0.800462,-0.365211 -1.57182,-0.349609 -2.19336,-0.349609 v 1.664062 c 0.62154,0 1.093607,0.01486 1.501954,0.201172 0.408346,0.186309 0.849661,0.555357 1.347656,1.546875 0.249047,0.495859 0.513635,1.173136 0.779297,1.820312 0.265661,0.647177 0.507666,1.24913 0.861328,1.738282 0.17683,0.244575 0.384496,0.527837 0.859375,0.636718 0.237439,0.05444 0.531595,0.01541 0.748047,-0.0957 0.216451,-0.111109 0.358931,-0.264974 0.470703,-0.417968 0.447086,-0.611979 0.616475,-1.395183 0.855468,-2.814453 0.477994,-2.83858 0.925201,-8.05511 1.423829,-12.080079 0.148112,-1.195575 0.304259,-1.859731 0.458984,-2.732421 0.217848,1.107116 0.424992,1.98661 0.667969,3.783203 0.373949,2.765023 0.768038,6.112395 1.167968,9.394531 0.399931,3.282136 0.806024,6.498741 1.212891,9.023437 0.203434,1.262349 0.405577,2.349761 0.613281,3.203121 0.207705,0.85337 0.304383,1.4115 0.771485,1.94532 0.116769,0.13344 0.283654,0.27942 0.535156,0.35351 0.251502,0.0741 0.559828,0.0287 0.761719,-0.0762 0.403782,-0.20978 0.519047,-0.47646 0.646484,-0.73633 0.254875,-0.51972 0.428485,-1.18591 0.615234,-2.04492 0.3735,-1.718011 0.725031,-4.142109 1.070313,-6.724609 0.345282,-2.582499 0.681523,-5.315993 1.013672,-7.599609 0.23977,-1.648485 0.464594,-2.555012 0.681641,-3.462891 0.215103,0.752811 0.432294,1.465418 0.660156,2.576172 0.328194,1.599846 0.657943,3.397325 0.992187,4.974609 0.334245,1.577285 0.632508,2.886145 1.0625,3.746094 0.214967,0.429916 0.492315,0.862179 1.087891,0.972656 0.297788,0.05524 0.608374,-0.02831 0.820312,-0.152343 0.211938,-0.124031 0.356175,-0.276184 0.480469,-0.433594 0.497178,-0.629638 0.786236,-1.482021 1.119141,-2.515625 0.66581,-2.067209 1.320917,-4.795833 1.863281,-6.076172 0.271163,-0.640124 0.52488,-0.887276 0.5625,-0.910156 0.03762,-0.02288 -0.09692,-0.03714 0.04687,0.04297 0.28759,0.160224 0.948147,0.96651 1.728516,1.61914 1.560388,1.304968 3.380501,1.294922 4.908203,1.294922 v -1.664062 c -1.527702,0 -2.765904,-0.01006 -3.839844,-0.908203 -0.536794,-0.448927 -1.088081,-1.296437 -1.986328,-1.796876 -0.449124,-0.250219 -1.170064,-0.345852 -1.722656,-0.0098 -0.552593,0.336087 -0.894042,0.88745 -1.230469,1.681641 -0.672815,1.58829 -1.286303,4.261664 -1.916016,6.216796 -0.216149,0.671101 -0.394959,0.996929 -0.576172,1.369141 -0.226576,-0.607622 -0.501423,-1.518259 -0.777343,-2.820313 -0.327137,-1.54374 -0.658922,-3.342231 -0.992188,-4.966796 -0.333266,-1.624566 -0.650183,-3.049868 -1.035156,-4 -0.09624,-0.237533 -0.195606,-0.448421 -0.332031,-0.648438 C 77.435841,80.348812 77.261559,80.116971 76.876953,80 c -0.384606,-0.116971 -0.867339,0.07635 -1.083984,0.296875 -0.216645,0.220528 -0.320868,0.446697 -0.425781,0.708984 -0.419642,1.049113 -0.710627,2.862023 -1.046876,5.173829 -0.336248,2.311805 -0.67387,5.048417 -1.017578,7.61914 -0.343707,2.570723 -0.696975,4.982339 -1.046875,6.591792 -0.03982,0.18318 -0.07084,0.21716 -0.111328,0.37891 -0.181558,-0.76665 -0.369945,-1.752823 -0.560547,-2.935546 C 71.184753,95.356669 70.77822,92.152076 70.378906,88.875 69.979592,85.597924 69.586098,82.247403 69.208984,79.458984 68.831871,76.670566 68.500118,74.50428 68.109375,73.332031 68.011688,73.038967 67.922217,72.806637 67.738281,72.566406 67.646314,72.446291 67.52285,72.313462 67.314453,72.214844 67.106057,72.116226 66.7987,72.094625 66.570312,72.173828 Z"
       id="path12430"
       inkscape:connector-curvature="0" />
  </g>
</svg>
