<?xml version="1.0" encoding="UTF-8" standalone="no"?>
<!-- Created with Inkscape (http://www.inkscape.org/) -->

<svg
   xmlns:dc="http://purl.org/dc/elements/1.1/"
   xmlns:cc="http://creativecommons.org/ns#"
   xmlns:rdf="http://www.w3.org/1999/02/22-rdf-syntax-ns#"
   xmlns:svg="http://www.w3.org/2000/svg"
   xmlns="http://www.w3.org/2000/svg"
   xmlns:sodipodi="http://sodipodi.sourceforge.net/DTD/sodipodi-0.dtd"
   xmlns:inkscape="http://www.inkscape.org/namespaces/inkscape"
   width="8.3866978mm"
   height="8.3866978mm"
   viewBox="0 0 8.3866978 8.3866978"
   version="1.1"
   id="svg1165"
   inkscape:version="0.92.1 r15371"
   sodipodi:docname="6.svg">
  <defs
     id="defs1159" />
  <sodipodi:namedview
     id="base"
     pagecolor="#ffffff"
     bordercolor="#666666"
     borderopacity="1.0"
     inkscape:pageopacity="0.0"
     inkscape:pageshadow="2"
     inkscape:zoom="15.839192"
     inkscape:cx="18.016171"
     inkscape:cy="20.123446"
     inkscape:document-units="mm"
     inkscape:current-layer="layer1"
     showgrid="false"
     fit-margin-top="0"
     fit-margin-left="0"
     fit-margin-right="0"
     fit-margin-bottom="0"
     inkscape:window-width="1920"
     inkscape:window-height="1051"
     inkscape:window-x="-9"
     inkscape:window-y="-9"
     inkscape:window-maximized="1" />
  <metadata
     id="metadata1162">
    <rdf:RDF>
      <cc:Work
         rdf:about="">
        <dc:format>image/svg+xml</dc:format>
        <dc:type
           rdf:resource="http://purl.org/dc/dcmitype/StillImage" />
        <dc:title></dc:title>
      </cc:Work>
    </rdf:RDF>
  </metadata>
  <g
     inkscape:label="Layer 1"
     inkscape:groupmode="layer"
     id="layer1"
     transform="translate(0.0032151,3.2216311e-5)">
    <path
       style="fill:#000000;fill-opacity:1;stroke:#ffffff;stroke-width:0.30240056;stroke-linejoin:round;stroke-miterlimit:4;stroke-dasharray:none;stroke-dashoffset:0;stroke-opacity:1;paint-order:stroke fill markers"
       d="M 4.4634602,4.1933165 A 0.27332661,0.27332661 0 0 1 4.1901336,4.4666431 0.27332661,0.27332661 0 0 1 3.916807,4.1933165 0.27332661,0.27332661 0 0 1 4.1901336,3.9199899 0.27332661,0.27332661 0 0 1 4.4634602,4.1933165 Z"
       id="path20360-7-3-5" />
    <path
       inkscape:connector-curvature="0"
       id="path20360-2-9-3"
       d="M 3.5445676,5.0990647 A 0.27332661,0.27332661 0 0 1 3.2712408,5.3723914 0.27332661,0.27332661 0 0 1 2.9979169,5.0990647 0.27332661,0.27332661 0 0 1 3.2712408,4.8257379 0.27332661,0.27332661 0 0 1 3.5445676,5.0990647 Z"
       style="fill:#000000;fill-opacity:1;stroke:#ffffff;stroke-width:0.30240056;stroke-linejoin:round;stroke-miterlimit:4;stroke-dasharray:none;stroke-dashoffset:0;stroke-opacity:1;paint-order:stroke fill markers" />
    <path
       inkscape:connector-curvature="0"
       id="path20360-2-9-7-8"
       d="M 5.3823417,3.2875683 A 0.27332661,0.27332661 0 0 1 5.109015,3.560895 0.27332661,0.27332661 0 0 1 4.8356882,3.2875683 0.27332661,0.27332661 0 0 1 5.109015,3.0142415 0.27332661,0.27332661 0 0 1 5.3823417,3.2875683 Z"
       style="fill:#000000;fill-opacity:1;stroke:#ffffff;stroke-width:0.30240056;stroke-linejoin:round;stroke-miterlimit:4;stroke-dasharray:none;stroke-dashoffset:0;stroke-opacity:1;paint-order:stroke fill markers" />
  </g>
</svg>
